<?xml version="1.0" encoding="UTF-8"?>

<svg xmlns="http://www.w3.org/2000/svg" style="display: none;">
    <symbol id="onlyoffice-button-create" viewBox="0 0 32 32">
        <path fill-rule="evenodd" clip-rule="evenodd" d="M14.0015 30.6322L0.840823 24.4532C-0.280274 23.9138 -0.280274 23.0801 0.840823 22.5897L5.4227 20.432L13.9528 24.4532C15.0739 24.9927 16.8774 24.9927 17.9497 24.4532L26.4798 20.432L31.0617 22.5897C32.1828 23.1292 32.1828 23.9628 31.0617 24.4532L17.901 30.6322C16.8774 31.1226 15.0739 31.1226 14.0015 30.6322Z" fill="#FF6F3D" />
        <path fill-rule="evenodd" clip-rule="evenodd" d="M14.0015 23.0311L0.840822 16.8521C-0.280274 16.3126 -0.280274 15.479 0.840822 14.9886L5.32521 12.8799L14.0015 16.9501C15.1226 17.4896 16.9261 17.4896 17.9985 16.9501L26.6748 12.8799L31.1592 14.9886C32.2803 15.528 32.2803 16.3617 31.1592 16.8521L17.9985 23.0311C16.8774 23.5705 15.0739 23.5705 14.0015 23.0311Z" fill="#95C038" />
        <path fill-rule="evenodd" clip-rule="evenodd" d="M14.0015 15.6261L0.840822 9.44707C-0.280274 8.90764 -0.280274 8.07396 0.840822 7.58357L14.0015 1.40458C15.1226 0.865141 16.9261 0.865141 17.9985 1.40458L31.1592 7.58357C32.2803 8.123 32.2803 8.95668 31.1592 9.44707L17.9985 15.6261C16.8774 16.1165 15.0739 16.1165 14.0015 15.6261Z" fill="#5DC0E8" />
    </symbol>
</svg>