<svg width="36" height="45" viewBox="0 0 36 45" fill="none" xmlns="http://www.w3.org/2000/svg">
<path d="M4 0.5H23.5869C23.719 0.5 23.8458 0.552459 23.9395 0.645508L33.3525 10.0068C33.4468 10.1006 33.4999 10.2284 33.5 10.3613V43C33.5 43.8284 32.8284 44.5 32 44.5H4C3.17157 44.5 2.5 43.8284 2.5 43V2C2.5 1.17157 3.17157 0.5 4 0.5Z" fill="white" stroke="#BBBBBB"/>
<path d="M23.5 1V9C23.5 9.82843 24.1716 10.5 25 10.5H33" stroke="#BBBBBB"/>
<path d="M12.5 29C13.3284 29 14 29.6716 14 30.5C14 31.3284 13.3284 32 12.5 32H8.5C7.67157 32 7 31.3284 7 30.5C7 29.6716 7.67157 29 8.5 29H12.5ZM12.5 23C13.3284 23 14 23.6716 14 24.5C14 25.3284 13.3284 26 12.5 26H8.5C7.67157 26 7 25.3284 7 24.5C7 23.6716 7.67157 23 8.5 23H12.5ZM27.5 17C28.3284 17 29 17.6716 29 18.5C29 19.3284 28.3284 20 27.5 20H8.5C7.67157 20 7 19.3284 7 18.5C7 17.6716 7.67157 17 8.5 17H27.5Z" fill="#A9CBDD"/>
<path d="M17 25C17 23.8954 17.8954 23 19 23H33C34.1046 23 35 23.8954 35 25V39C35 40.1046 34.1046 41 33 41H19C17.8954 41 17 40.1046 17 39V25Z" fill="#287CA9"/>
<path d="M33.395 26.6894L30.71 37.3994H27.74L26.495 32.2244C26.465 32.1144 26.43 31.9544 26.39 31.7444C26.35 31.5244 26.3 31.2844 26.24 31.0244C26.19 30.7544 26.145 30.4994 26.105 30.2594C26.065 30.0094 26.035 29.8094 26.015 29.6594C25.995 29.8094 25.96 30.0094 25.91 30.2594C25.87 30.4994 25.825 30.7544 25.775 31.0244C25.725 31.2844 25.675 31.5244 25.625 31.7444C25.585 31.9544 25.55 32.1144 25.52 32.2244L24.26 37.3994H21.305L18.605 26.6894H21.095L22.37 32.3144C22.41 32.4644 22.455 32.6644 22.505 32.9144C22.555 33.1544 22.605 33.4144 22.655 33.6944C22.705 33.9644 22.75 34.2294 22.79 34.4894C22.84 34.7394 22.875 34.9544 22.895 35.1344C22.925 34.8944 22.965 34.6194 23.015 34.3094C23.075 33.9994 23.135 33.6844 23.195 33.3644C23.255 33.0444 23.315 32.7444 23.375 32.4644C23.435 32.1844 23.49 31.9594 23.54 31.7894L24.815 26.6894H27.2L28.475 31.7894C28.505 31.9594 28.55 32.1844 28.61 32.4644C28.68 32.7444 28.745 33.0494 28.805 33.3794C28.875 33.6994 28.935 34.0144 28.985 34.3244C29.035 34.6344 29.075 34.9044 29.105 35.1344C29.135 34.8844 29.18 34.5844 29.24 34.2344C29.31 33.8744 29.38 33.5194 29.45 33.1694C29.52 32.8094 29.58 32.5294 29.63 32.3294L30.905 26.6894H33.395Z" fill="white"/>
</svg>
