<svg width="36" height="45" viewBox="0 0 36 45" fill="none" xmlns="http://www.w3.org/2000/svg">
<path d="M4 0.5H23.5869C23.719 0.5 23.8458 0.552459 23.9395 0.645508L33.3525 10.0068C33.4468 10.1006 33.4999 10.2284 33.5 10.3613V43C33.5 43.8284 32.8284 44.5 32 44.5H4C3.17157 44.5 2.5 43.8284 2.5 43V2C2.5 1.17157 3.17157 0.5 4 0.5Z" fill="white" stroke="#BBBBBB"/>
<path d="M23.5 1V9C23.5 9.82843 24.1716 10.5 25 10.5H33" stroke="#BBBBBB"/>
<path d="M12.5 29C13.3284 29 14 29.6716 14 30.5C14 31.3284 13.3284 32 12.5 32H8.5C7.67157 32 7 31.3284 7 30.5C7 29.6716 7.67157 29 8.5 29H12.5ZM12.5 23C13.3284 23 14 23.6716 14 24.5C14 25.3284 13.3284 26 12.5 26H8.5C7.67157 26 7 25.3284 7 24.5C7 23.6716 7.67157 23 8.5 23H12.5ZM27.5 17C28.3284 17 29 17.6716 29 18.5C29 19.3284 28.3284 20 27.5 20H8.5C7.67157 20 7 19.3284 7 18.5C7 17.6716 7.67157 17 8.5 17H27.5Z" fill="#F5B8B0"/>
<path d="M17 25C17 23.8954 17.8954 23 19 23H33C34.1046 23 35 23.8954 35 25V39C35 40.1046 34.1046 41 33 41H19C17.8954 41 17 40.1046 17 39V25Z" fill="#E54D39"/>
<path fill-rule="evenodd" clip-rule="evenodd" d="M24.5232 26C24.5232 27.747 24.0241 29.8076 23.1807 31.7086C22.334 33.6174 21.1911 35.2504 20 36.2131L21.2942 38C24.5045 35.8375 28.0592 34.3552 31.4988 34.8516L32 32.7035C29.0694 31.7175 26.7179 28.7585 26.7179 26H24.5232ZM25.9545 30.5742C25.7351 31.2688 25.4752 31.9546 25.1812 32.616C25.0226 32.9742 24.8537 33.3272 24.6723 33.675C25.6934 33.2674 26.7486 32.9472 27.8256 32.7522C27.1079 32.1144 26.4785 31.3818 25.9545 30.5742Z" fill="white"/>
</svg>
