<svg width="36" height="45" viewBox="0 0 36 45" fill="none" xmlns="http://www.w3.org/2000/svg">
<path d="M4 0.5H23.5869C23.719 0.5 23.8458 0.552459 23.9395 0.645508L33.3525 10.0068C33.4468 10.1006 33.4999 10.2284 33.5 10.3613V43C33.5 43.8284 32.8284 44.5 32 44.5H4C3.17157 44.5 2.5 43.8284 2.5 43V2C2.5 1.17157 3.17157 0.5 4 0.5Z" fill="white" stroke="#BBBBBB"/>
<path d="M23.5 1V9C23.5 9.82843 24.1716 10.5 25 10.5H33" stroke="#BBBBBB"/>
<path d="M17 25C17 23.8954 17.8954 23 19 23H33C34.1046 23 35 23.8954 35 25V39C35 40.1046 34.1046 41 33 41H19C17.8954 41 17 40.1046 17 39V25Z" fill="#3AA133"/>
<path d="M31.1648 37.3994H28.2248L25.9298 33.6794L23.6348 37.3994H20.8148L24.3698 31.8944L21.0248 26.6894H23.8598L26.0048 30.2894L28.0748 26.6894H30.9098L27.5498 32.0744L31.1648 37.3994Z" fill="white"/>
<path d="M13.5 29C14.3284 29 15 29.6716 15 30.5C15 31.3284 14.3284 32 13.5 32H8.5C7.67157 32 7 31.3284 7 30.5C7 29.6716 7.67157 29 8.5 29H13.5ZM13.5 23C14.3284 23 15 23.6716 15 24.5C15 25.3284 14.3284 26 13.5 26H8.5C7.67157 26 7 25.3284 7 24.5C7 23.6716 7.67157 23 8.5 23H13.5ZM13.5 17C14.3284 17 15 17.6716 15 18.5C15 19.3284 14.3284 20 13.5 20H8.5C7.67157 20 7 19.3284 7 18.5C7 17.6716 7.67157 17 8.5 17H13.5ZM25.5 17C26.3284 17 27 17.6716 27 18.5C27 19.3284 26.3284 20 25.5 20H20.5C19.6716 20 19 19.3284 19 18.5C19 17.6716 19.6716 17 20.5 17H25.5Z" fill="#B0D9AD"/>
</svg>
