<svg width="36" height="45" viewBox="0 0 36 45" fill="none" xmlns="http://www.w3.org/2000/svg">
<path d="M4 0.5H23.5869C23.719 0.5 23.8458 0.552459 23.9395 0.645508L33.3525 10.0068C33.4468 10.1006 33.4999 10.2284 33.5 10.3613V43C33.5 43.8284 32.8284 44.5 32 44.5H4C3.17157 44.5 2.5 43.8284 2.5 43V2C2.5 1.17157 3.17157 0.5 4 0.5Z" fill="white" stroke="#BBBBBB"/>
<path d="M23.5 1V9C23.5 9.82843 24.1716 10.5 25 10.5H33" stroke="#BBBBBB"/>
<path d="M8.5 23C8.22386 23 7.99837 22.7759 8.01562 22.5003C8.07067 21.6207 8.2708 20.7549 8.60896 19.9385C9.011 18.9679 9.60028 18.086 10.3431 17.3431C11.086 16.6003 11.9679 16.011 12.9385 15.609C13.7549 15.2708 14.6207 15.0707 15.5003 15.0156C15.7759 14.9984 16 15.2239 16 15.5L16 22.5C16 22.7761 15.7761 23 15.5 23H8.5Z" fill="#FAC299"/>
<path d="M9.5 25C9.22386 25 8.99855 25.224 9.01388 25.4998C9.1031 27.1042 9.62062 28.6589 10.5168 30.0001C11.5057 31.4802 12.9113 32.6337 14.5558 33.3149C16.2004 33.9961 18.01 34.1743 19.7558 33.8271C21.5016 33.4798 23.1053 32.6226 24.364 31.364C25.6226 30.1053 26.4798 28.5016 26.8271 26.7558C27.1743 25.01 26.9961 23.2004 26.3149 21.5558C25.6337 19.9113 24.4802 18.5057 23.0001 17.5168C21.6589 16.6206 20.1042 16.1031 18.4998 16.0139C18.224 15.9986 18 16.2239 18 16.5V24.5C18 24.7761 17.7761 25 17.5 25H9.5Z" fill="#FAC299"/>
<path d="M17 25C17 23.8954 17.8954 23 19 23H33C34.1046 23 35 23.8954 35 25V39C35 40.1046 34.1046 41 33 41H19C17.8954 41 17 40.1046 17 39V25Z" fill="#F36700"/>
<path d="M26.0909 26.6894C27.4609 26.6894 28.4709 26.9894 29.1209 27.5894C29.7809 28.1794 30.1109 29.0044 30.1109 30.0644C30.1109 30.5444 30.0409 31.0044 29.9009 31.4444C29.7609 31.8744 29.5259 32.2594 29.1959 32.5994C28.8759 32.9394 28.4509 33.2094 27.9209 33.4094C27.4009 33.6094 26.7559 33.7094 25.9859 33.7094H25.0859V37.3994H22.5359V26.6894H26.0909ZM26.0009 28.7744H25.0859V31.6244H25.7609C26.1109 31.6244 26.4159 31.5744 26.6759 31.4744C26.9459 31.3744 27.1559 31.2144 27.3059 30.9944C27.4559 30.7744 27.5309 30.4894 27.5309 30.1394C27.5309 29.6994 27.4059 29.3644 27.1559 29.1344C26.9059 28.8944 26.5209 28.7744 26.0009 28.7744Z" fill="white"/>
</svg>
